/* XPM */
static char * bitcoin32_xpm[] = {
"32 32 566 2",
"  	c None",
". 	c #C41757",
"+ 	c #E51761",
"@ 	c #CA1658",
"# 	c #D5175C",
"$ 	c #DE175F",
"% 	c #AB164E",
"& 	c #9F144A",
"* 	c #AB462E",
"= 	c #0355AC",
"- 	c #025AB8",
"; 	c #0452A6",
"> 	c #DA185F",
", 	c #D9175E",
"' 	c #971A43",
") 	c #054891",
"! 	c #024FA2",
"~ 	c #313958",
"{ 	c #BD4F38",
"] 	c #A2432C",
"^ 	c #823F32",
"/ 	c #0255AE",
"( 	c #0157B7",
"_ 	c #27515B",
": 	c #A8B00E",
"< 	c #908410",
"[ 	c #B2492D",
"} 	c #A81F45",
"| 	c #D0165B",
"1 	c #841743",
"2 	c #0B4481",
"3 	c #004FA9",
"4 	c #385847",
"5 	c #9C9F09",
"6 	c #E31761",
"7 	c #A2492F",
"8 	c #A0A30A",
"9 	c #9C9F07",
"0 	c #3D6455",
"a 	c #0153AE",
"b 	c #00438B",
"c 	c #AB4833",
"d 	c #E05736",
"e 	c #004FA3",
"f 	c #005CC0",
"g 	c #1F5571",
"h 	c #B6BC07",
"i 	c #7A790D",
"j 	c #AF502B",
"k 	c #B7244A",
"l 	c #E81662",
"m 	c #7E2047",
"n 	c #575C67",
"o 	c #3D464C",
"p 	c #174577",
"q 	c #004EAA",
"r 	c #3E5E44",
"s 	c #B0B408",
"t 	c #F31866",
"u 	c #D3145C",
"v 	c #8F432C",
"w 	c #718223",
"x 	c #0755A5",
"y 	c #00458D",
"z 	c #E15835",
"A 	c #164188",
"B 	c #005DBF",
"C 	c #18447A",
"D 	c #BCBA08",
"E 	c #909809",
"F 	c #A74E2E",
"G 	c #B02B46",
"H 	c #E41561",
"I 	c #7F1D46",
"J 	c #6F7481",
"K 	c #656B75",
"L 	c #1E4772",
"M 	c #0051AA",
"N 	c #133D5D",
"O 	c #B7BB05",
"P 	c #EF1765",
"Q 	c #BD1553",
"R 	c #6B710D",
"S 	c #98A00D",
"T 	c #114F79",
"U 	c #22366F",
"V 	c #642556",
"W 	c #CF3046",
"X 	c #D72153",
"Y 	c #B51E66",
"Z 	c #1C4CA4",
"` 	c #622F7A",
" .	c #CA7029",
"..	c #967017",
"+.	c #A42C44",
"@.	c #5D646F",
"#.	c #737884",
"$.	c #395069",
"%.	c #004692",
"&.	c #A6AA08",
"*.	c #747D0C",
"=.	c #918D11",
"-.	c #E71861",
";.	c #F01865",
">.	c #F91769",
",.	c #FC176A",
"'.	c #D01B6A",
").	c #DC1A6A",
"!.	c #F31B63",
"~.	c #E81F5D",
"{.	c #F41964",
"].	c #EA1564",
"^.	c #CA135D",
"/.	c #D8175E",
"(.	c #EE1965",
"_.	c #F31A67",
":.	c #F91767",
"<.	c #F51865",
"[.	c #EB1E5E",
"}.	c #E82557",
"|.	c #EA2755",
"1.	c #EA2557",
"2.	c #EC1E5D",
"3.	c #CC1D6D",
"4.	c #C25E46",
"5.	c #DD8827",
"6.	c #BC493F",
"7.	c #D61B60",
"8.	c #BF396F",
"9.	c #9D6080",
"0.	c #986784",
"a.	c #A35175",
"b.	c #CA464A",
"c.	c #F0553C",
"d.	c #F65C3B",
"e.	c #F75E3B",
"f.	c #F65D3B",
"g.	c #F2563C",
"h.	c #BC3A3C",
"i.	c #354375",
"j.	c #8FAF39",
"k.	c #6B9E5E",
"l.	c #3A638B",
"m.	c #A1256E",
"n.	c #DF1760",
"o.	c #B64271",
"p.	c #777A86",
"q.	c #78828D",
"r.	c #838D9A",
"s.	c #818D9A",
"t.	c #8C706F",
"u.	c #ED603E",
"v.	c #FF633C",
"w.	c #FF623C",
"x.	c #F8613C",
"y.	c #6F4C51",
"z.	c #0D579A",
"A.	c #236D9A",
"B.	c #005DC5",
"C.	c #004C9F",
"D.	c #62388A",
"E.	c #E81762",
"F.	c #C52B4F",
"G.	c #E1225E",
"H.	c #936B85",
"I.	c #5D656D",
"J.	c #3A3C41",
"K.	c #7C8390",
"L.	c #858C9B",
"M.	c #535359",
"N.	c #BF5238",
"O.	c #FD613B",
"P.	c #F7603B",
"Q.	c #FA603A",
"R.	c #8B5664",
"S.	c #0F59AE",
"T.	c #0160C8",
"U.	c #0060CB",
"V.	c #1256A1",
"W.	c #233B51",
"X.	c #423D8D",
"Y.	c #F21968",
"Z.	c #E01961",
"`.	c #C5C807",
" +	c #CFBA12",
".+	c #716F5B",
"++	c #6E768E",
"@+	c #7C838F",
"#+	c #6E7480",
"$+	c #838A98",
"%+	c #828A97",
"&+	c #676C77",
"*+	c #80534C",
"=+	c #245192",
"-+	c #005EC5",
";+	c #0062CB",
">+	c #005EC4",
",+	c #1B66B6",
"'+	c #356DA4",
")+	c #4F4093",
"!+	c #F61767",
"~+	c #F61868",
"{+	c #DFE305",
"]+	c #DFE001",
"^+	c #B4C823",
"/+	c #20639B",
"(+	c #5E6A7A",
"_+	c #79808C",
":+	c #868D9B",
"<+	c #848B99",
"[+	c #7F8693",
"}+	c #818895",
"|+	c #6F7A87",
"1+	c #04407C",
"2+	c #214594",
"3+	c #284EAB",
"4+	c #1F53B2",
"5+	c #1752AF",
"6+	c #005AB9",
"7+	c #6A388C",
"8+	c #FC1767",
"9+	c #FD1869",
"0+	c #E51963",
"a+	c #B4B809",
"b+	c #D5D703",
"c+	c #D8D800",
"d+	c #90A730",
"e+	c #30659D",
"f+	c #7D8493",
"g+	c #6E7581",
"h+	c #78818E",
"i+	c #757E8B",
"j+	c #727986",
"k+	c #636B77",
"l+	c #666E79",
"m+	c #1D4D7E",
"n+	c #015BBB",
"o+	c #0258B2",
"p+	c #21418E",
"q+	c #663179",
"r+	c #72307A",
"s+	c #3A3D88",
"t+	c #0158B8",
"u+	c #7F3385",
"v+	c #FF1565",
"w+	c #E41B6A",
"x+	c #E71A67",
"y+	c #DBDE04",
"z+	c #E0E202",
"A+	c #F2F400",
"B+	c #678A4E",
"C+	c #5B7595",
"D+	c #878E9B",
"E+	c #8C7172",
"F+	c #946A66",
"G+	c #8E7475",
"H+	c #8D6D6C",
"I+	c #75727A",
"J+	c #7B8390",
"K+	c #787F8C",
"L+	c #4D607A",
"M+	c #0154AE",
"N+	c #0060CA",
"O+	c #1868A6",
"P+	c #90AC37",
"Q+	c #A5BB2F",
"R+	c #799D48",
"S+	c #0560BB",
"T+	c #404298",
"U+	c #713689",
"V+	c #2E4BA5",
"W+	c #A32672",
"X+	c #D9185D",
"Y+	c #E2E404",
"Z+	c #EAEC01",
"`+	c #E0E70B",
" @	c #276D97",
".@	c #517097",
"+@	c #808793",
"@@	c #AA5B4C",
"#@	c #D95231",
"$@	c #DB5535",
"%@	c #DC5A3B",
"&@	c #897B81",
"*@	c #838C9B",
"=@	c #757D80",
"-@	c #0050AD",
";@	c #6B975A",
">@	c #FAFB00",
",@	c #FEFF00",
"'@	c #EBEF04",
")@	c #3E7E84",
"!@	c #005FCB",
"~@	c #0062C9",
"{@	c #1555B4",
"]@	c #A22673",
"^@	c #E11860",
"/@	c #D3D504",
"(@	c #D7D803",
"_@	c #C8CE0B",
":@	c #2A6F92",
"<@	c #68526C",
"[@	c #A45A4A",
"}@	c #CC5438",
"|@	c #DE5534",
"1@	c #DA5333",
"2@	c #D55333",
"3@	c #A56257",
"4@	c #6E707E",
"5@	c #ADB41D",
"6@	c #E1E403",
"7@	c #D0D60B",
"8@	c #FAFC00",
"9@	c #F8FB00",
"0@	c #FDFE00",
"a@	c #8AAD46",
"b@	c #005CC2",
"c@	c #494095",
"d@	c #C5206E",
"e@	c #F81868",
"f@	c #E51863",
"g@	c #E0E304",
"h@	c #DEE002",
"i@	c #EAEB00",
"j@	c #558C71",
"k@	c #654E6E",
"l@	c #DE522F",
"m@	c #E35736",
"n@	c #D35132",
"o@	c #D75233",
"p@	c #DD5434",
"q@	c #D85434",
"r@	c #DDE202",
"s@	c #EDF002",
"t@	c #E6E802",
"u@	c #FAFD00",
"v@	c #F3F600",
"w@	c #F0F100",
"x@	c #A3BA2E",
"y@	c #045EBB",
"z@	c #912C7D",
"A@	c #FF1667",
"B@	c #FC1869",
"C@	c #E71963",
"D@	c #D2D603",
"E@	c #E1E402",
"F@	c #48867C",
"G@	c #5C527B",
"H@	c #D24F2D",
"I@	c #D65232",
"J@	c #DC5434",
"K@	c #DB5434",
"L@	c #D15234",
"M@	c #C1C50E",
"N@	c #EEF002",
"O@	c #E3E602",
"P@	c #DEE204",
"Q@	c #D9DC03",
"R@	c #D2D40A",
"S@	c #C2C41C",
"T@	c #C1CA15",
"U@	c #23729D",
"V@	c #4E3F98",
"W@	c #F41766",
"X@	c #E41863",
"Y@	c #A79413",
"Z@	c #CBC009",
"`@	c #417C77",
" #	c #455E8C",
".#	c #8F6762",
"+#	c #B9523B",
"@#	c #D65131",
"##	c #CD5032",
"$#	c #AD4932",
"%#	c #9B9D1D",
"&#	c #F7FA00",
"*#	c #F4F600",
"=#	c #A6A70B",
"-#	c #D2D40D",
";#	c #DADD0E",
">#	c #989C56",
",#	c #9A9E4B",
"'#	c #AFB91C",
")#	c #186BA8",
"!#	c #1E51B2",
"~#	c #DD1C6B",
"{#	c #DD1961",
"]#	c #C45140",
"^#	c #6A7854",
"/#	c #68798E",
"(#	c #838E9C",
"_#	c #95635D",
":#	c #CF4E2E",
"<#	c #CF5437",
"[#	c #956965",
"}#	c #727279",
"|#	c #A2A61C",
"1#	c #B9BD07",
"2#	c #E8EB00",
"3#	c #EBEE05",
"4#	c #6E6F24",
"5#	c #B8BA0A",
"6#	c #F0F309",
"7#	c #C1C41E",
"8#	c #DBDB03",
"9#	c #A2B92E",
"0#	c #065EB8",
"a#	c #174FA9",
"b#	c #CD1D6A",
"c#	c #FE1767",
"d#	c #8C5275",
"e#	c #7D8390",
"f#	c #848D9C",
"g#	c #986964",
"h#	c #D24E2E",
"i#	c #A55645",
"j#	c #828896",
"k#	c #87817E",
"l#	c #A49512",
"m#	c #A2691C",
"n#	c #D4BD0F",
"o#	c #F4F801",
"p#	c #DDCC0F",
"q#	c #E7DF07",
"r#	c #DBDC01",
"s#	c #E3E805",
"t#	c #005BCA",
"u#	c #004DA9",
"v#	c #3F3F98",
"w#	c #982977",
"x#	c #777F8B",
"y#	c #836E83",
"z#	c #787080",
"A#	c #848E9C",
"B#	c #9A6D67",
"C#	c #E85936",
"D#	c #BE5E4A",
"E#	c #7F8796",
"F#	c #858C84",
"G#	c #C4C218",
"H#	c #CA7627",
"I#	c #E9D10D",
"J#	c #F6FA00",
"K#	c #DB971C",
"L#	c #DBA018",
"M#	c #F8FD00",
"N#	c #E3D604",
"O#	c #727450",
"P#	c #1366AD",
"Q#	c #478581",
"R#	c #598C69",
"S#	c #32798E",
"T#	c #075EBB",
"U#	c #035DBF",
"V#	c #0359B5",
"W#	c #0552A3",
"X#	c #AD295D",
"Y#	c #85677E",
"Z#	c #818593",
"`#	c #7E6873",
" $	c #D05D42",
".$	c #E26041",
"+$	c #A06C65",
"@$	c #986F6F",
"#$	c #AD972E",
"$$	c #EFF200",
"%$	c #F9FC00",
"&$	c #F0EC03",
"*$	c #EFE904",
"=$	c #F5F900",
"-$	c #E5B910",
";$	c #A55D44",
">$	c #9FB632",
",$	c #F0F301",
"'$	c #E9EB00",
")$	c #DCE109",
"!$	c #618E60",
"~$	c #0052AD",
"{$	c #0456B0",
"]$	c #0356AF",
"^$	c #CB2563",
"/$	c #BE3369",
"($	c #CC235D",
"_$	c #DF4441",
":$	c #FD613A",
"<$	c #F15F39",
"[$	c #DCB113",
"}$	c #F2F700",
"|$	c #F4F700",
"1$	c #F4F800",
"2$	c #E9EA02",
"3$	c #D97A26",
"4$	c #DB941C",
"5$	c #EEF101",
"6$	c #DFE202",
"7$	c #EFF101",
"8$	c #CDD006",
"9$	c #D8185E",
"0$	c #F81767",
"a$	c #FD176A",
"b$	c #EF1B61",
"c$	c #E23849",
"d$	c #F1563C",
"e$	c #E67E29",
"f$	c #E7E304",
"g$	c #F2F201",
"h$	c #DFDF03",
"i$	c #F1F401",
"j$	c #F7FC00",
"k$	c #D28722",
"l$	c #D99F1C",
"m$	c #FAFF00",
"n$	c #EAE704",
"o$	c #B7AE0C",
"p$	c #C9CD08",
"q$	c #D5195E",
"r$	c #F51867",
"s$	c #FC186A",
"t$	c #F71767",
"u$	c #E61F5A",
"v$	c #D58F20",
"w$	c #E7ED00",
"x$	c #D2C20A",
"y$	c #D98024",
"z$	c #DBC50B",
"A$	c #E9EC02",
"B$	c #F8FF00",
"C$	c #E2A31F",
"D$	c #DC8D26",
"E$	c #F7FE00",
"F$	c #C7B80E",
"G$	c #CE195C",
"H$	c #ED1865",
"I$	c #FB1869",
"J$	c #FA156A",
"K$	c #DB842A",
"L$	c #D8DF01",
"M$	c #C9A113",
"N$	c #D37227",
"O$	c #D9C20B",
"P$	c #CCA213",
"Q$	c #EEF102",
"R$	c #F9FE00",
"S$	c #DCC70D",
"T$	c #DEC60E",
"U$	c #E1E604",
"V$	c #D91960",
"W$	c #E81863",
"X$	c #D89124",
"Y$	c #E7E902",
"Z$	c #DF7729",
"`$	c #F16337",
" %	c #D67028",
".%	c #DDB90F",
"+%	c #F7FB00",
"@%	c #C6BB0C",
"#%	c #966926",
"$%	c #CCCD05",
"%%	c #E28127",
"&%	c #FB5E3D",
"*%	c #E86733",
"=%	c #E2D408",
"-%	c #E7E903",
";%	c #AF6526",
">%	c #B7B309",
",%	c #CAD007",
"                                                                ",
"    . + @                                                       ",
"    # $ % &           *     = - ;                               ",
"    > ,   '     ) ! ~ { ] ^ / ( _ : < [ } | 1     2 3 4 5       ",
"      6   7 8 9 0 a b c d   e f g h i j k l m n o p q r s       ",
"      t u v     w x y   z   A B C D E F G H I J K L M N O       ",
"      P Q   R   S T U V W X Y Z `  ...+.      @.#.$.%.  &.      ",
"              *.=.  -.;.>.,.>.'.).!.~.{.].^.                    ",
"                /.(._.:.<.[.}.|.1.2.<.3.4.5.6.                  ",
"              7.8.9.0.a.b.c.d.e.f.g.h.i.j.k.l.m.                ",
"            n.o.p.q.r.s.t.u.v.w.v.x.y.z.A.B.C.D.E.              ",
"          F.G.H.I.J.K.L.M.N.O.P.Q.R.S.T.U.V.W.X.Y.Z.            ",
"        `. +.+++@+#+$+%+&+*+      =+-+;+>+,+'+)+!+~+            ",
"      {+]+^+/+(+_+:+<+[+}+|+      1+2+3+4+5+6+7+8+9+0+          ",
"    a+b+c+d+e+f+g+h+i+i+j+k+l+m+n+o+p+q+r+s+t+u+v+w+x+          ",
"    y+z+A+B+C+D+E+F+G+H+I+J+K+L+M+N+O+P+Q+R+S+T+U+V+W+X+        ",
"    Y+Z+`+ @.@+@@@#@$@%@&@*@=@    -@;@>@,@'@)@!@~@{@]@^@        ",
"    /@(@_@:@<@[@}@|@1@2@3@4@5@6@    7@8@9@0@a@b@c@d@e@f@        ",
"    g@h@i@j@k@l@m@n@o@p@q@  r@s@    t@u@v@w@x@y@z@A@B@C@        ",
"      D@E@F@G@H@I@I@J@K@L@  M@N@O@P@Q@z+R@S@T@U@V@W@B@X@        ",
"      Y@Z@`@ #.#+#@#|@##$#  %#&#*#=#-#;#>#,#'#)#!#~#9+{#        ",
"        ]#^#/#(#_#:#<#[#}#|#1#2#3#4#5#6#7#8#9#0#a#b#c#          ",
"        d#e#_+f#g#h#i#j#k#l#m#n#o#p#q#9@r#s#j@t#u#v#w#          ",
"        x#y#z#A#B#C#D#E#F#G#H#I#J#K#L#M#N#O#P#Q#R#S#T#U#V#W#    ",
"          X#Y#Z#`# $.$+$@$#$$$9@%$&$*$=$-$;$>$,$'$)$!$~${$]$    ",
"            ^$/$($_$:$:$<$[$}$%$|$1$u@2$3$4$J#5$6$7$8$          ",
"            9$0$a$b$c$d$e$f$t@g$h$i$%$j$k$l$m$n$o$p$            ",
"              q$r$s$t$u$v$w$x$y$z$5$A$B$C$D$E$F$                ",
"                G$H$I$J$K$L$M$N$O$P$Q$R$S$T$U$                  ",
"                    V$W$X$Y$Z$`$ %.%+%9@@%                      ",
"                        #%$%%%&%*%=%+%-%                        ",
"                                ;%>%,%                          "};
