/* XPM */
static char * bitcoin16_xpm[] = {
"16 16 253 2",
"  	c None",
". 	c #FFAB31",
"+ 	c #007BE3",
"@ 	c #D49426",
"# 	c #FF1D6B",
"$ 	c #843859",
"% 	c #317ACE",
"& 	c #4FA7BA",
"* 	c #9FA40E",
"= 	c #E9EC02",
"- 	c #ADB30B",
"; 	c #FF25FF",
"> 	c #001901",
", 	c #FFFF50",
"' 	c #703F7B",
") 	c #B0B805",
"! 	c #8E970D",
"~ 	c #7B8415",
"{ 	c #FF5749",
"] 	c #C01A59",
"^ 	c #582540",
"/ 	c #FFFF00",
"( 	c #FF1668",
"_ 	c #FF0E74",
": 	c #9B1D51",
"< 	c #BA1B58",
"[ 	c #C67F26",
"} 	c #32326A",
"| 	c #7D506E",
"1 	c #5B7078",
"2 	c #636D78",
"3 	c #8D4467",
"4 	c #2A7299",
"5 	c #053B74",
"6 	c #000000",
"7 	c #C71959",
"8 	c #CB195A",
"9 	c #BCB80E",
"0 	c #CFD307",
"a 	c #385B66",
"b 	c #323D4B",
"c 	c #CB195B",
"d 	c #BE1A58",
"e 	c #FF2276",
"f 	c #EEEA03",
"g 	c #6D5E20",
"h 	c #755823",
"i 	c #8F1747",
"j 	c #C71758",
"k 	c #B61653",
"l 	c #A33405",
"m 	c #003B71",
"n 	c #064B93",
"o 	c #003E9D",
"p 	c #B71855",
"q 	c #D8175E",
"r 	c #A71D49",
"s 	c #826925",
"t 	c #084C8E",
"u 	c #824646",
"v 	c #7C4544",
"w 	c #0553A9",
"x 	c #386C68",
"y 	c #9E5D1F",
"z 	c #B31E4B",
"A 	c #841E46",
"B 	c #094078",
"C 	c #22556E",
"D 	c #888E0E",
"E 	c #9A1E52",
"F 	c #E01662",
"G 	c #AD3140",
"H 	c #8B870D",
"I 	c #256277",
"J 	c #48476A",
"K 	c #BD4936",
"L 	c #0A4EA8",
"M 	c #658245",
"N 	c #9F6F1A",
"O 	c #C41E50",
"P 	c #7E425F",
"Q 	c #32557A",
"R 	c #235872",
"S 	c #9BA20D",
"T 	c #353B01",
"U 	c #D0165B",
"V 	c #A62645",
"W 	c #6F7F06",
"X 	c #825D42",
"Y 	c #AC2064",
"Z 	c #E61F5B",
"` 	c #A52677",
" .	c #B6395C",
"..	c #D03748",
"+.	c #CD1F52",
"@.	c #78495C",
"#.	c #485D71",
"$.	c #27525F",
"%.	c #999F0B",
"&.	c #778111",
"*.	c #30162B",
"=.	c #BE2A58",
"-.	c #C13D6E",
";.	c #947854",
">.	c #80496A",
",.	c #AA1353",
"'.	c #CA423F",
").	c #B5446D",
"!.	c #A86253",
"~.	c #FD6138",
"{.	c #D25E49",
"].	c #D61C68",
"^.	c #C51853",
"/.	c #D0D503",
"(.	c #BCBB1C",
"_.	c #786F76",
":.	c #9D564D",
"<.	c #384F82",
"[.	c #1251B2",
"}.	c #EE1968",
"|.	c #E21860",
"1.	c #BEC30A",
"2.	c #DCDD01",
"3.	c #777A85",
"4.	c #506A88",
"5.	c #0056B4",
"6.	c #516878",
"7.	c #BD216D",
"8.	c #DA082F",
"9.	c #CCD109",
"0.	c #E1E200",
"a.	c #937472",
"b.	c #A6AE3F",
"c.	c #467A6D",
"d.	c #C2D521",
"e.	c #CD1F6C",
"f.	c #D51654",
"g.	c #BDC20B",
"h.	c #DBDD00",
"i.	c #C45932",
"j.	c #DDE304",
"k.	c #DBDD01",
"l.	c #E5E703",
"m.	c #F81765",
"n.	c #C31A5A",
"o.	c #C1861A",
"p.	c #8A824E",
"q.	c #C05843",
"r.	c #937642",
"s.	c #D1D207",
"t.	c #F01663",
"u.	c #FF0013",
"v.	c #794D72",
"w.	c #826A7D",
"x.	c #454B98",
"y.	c #0353A8",
"z.	c #07396E",
"A.	c #3B837C",
"B.	c #994068",
"C.	c #A64C76",
"D.	c #D1DC10",
"E.	c #5B9167",
"F.	c #004EAC",
"G.	c #063B71",
"H.	c #C10045",
"I.	c #E31761",
"J.	c #F31A64",
"K.	c #E7E005",
"L.	c #C4BB0B",
"M.	c #FFF400",
"N.	c #AB1B52",
"O.	c #E21763",
"P.	c #EB1F61",
"Q.	c #DAA71B",
"R.	c #D7C60D",
"S.	c #D0CE09",
"T.	c #B32252",
"U.	c #BBA115",
"V.	c #E0732E",
"W.	c #D9991C",
"X.	c #E1E603",
"Y.	c #B6B90C",
"Z.	c #CA3D73",
"`.	c #E63757",
" +	c #F44049",
".+	c #F33B4B",
"++	c #B2345D",
"@+	c #6F6A78",
"#+	c #7A828F",
"$+	c #2E5A94",
"%+	c #0E65AA",
"&+	c #444185",
"*+	c #697279",
"=+	c #747C8A",
"-+	c #7D8694",
";+	c #1555B4",
">+	c #4A4997",
",+	c #A9BC2A",
"'+	c #607A90",
")+	c #88767B",
"!+	c #89767B",
"~+	c #6C7964",
"{+	c #3D4D9D",
"]+	c #992E82",
"^+	c #89A849",
"/+	c #756679",
"(+	c #C75940",
"_+	c #CF583C",
":+	c #EAF206",
"<+	c #3F7E8C",
"[+	c #52409E",
"}+	c #93AF3E",
"|+	c #925257",
"1+	c #DA5231",
"2+	c #DB5233",
"3+	c #DCDE0D",
"4+	c #689265",
"5+	c #A72980",
"6+	c #73717F",
"7+	c #BE5841",
"8+	c #C9CB0A",
"9+	c #CCCE0F",
"0+	c #C1C323",
"a+	c #588E6E",
"b+	c #723491",
"c+	c #7D828F",
"d+	c #B46352",
"e+	c #A06D69",
"f+	c #989251",
"g+	c #D2B20F",
"h+	c #E3D20B",
"i+	c #E8DA07",
"j+	c #C1C21D",
"k+	c #428084",
"l+	c #476986",
"m+	c #C54C57",
"n+	c #D9614A",
"o+	c #C89137",
"p+	c #F0EF02",
"q+	c #F4F202",
"r+	c #F1E804",
"s+	c #CC9924",
"t+	c #CED319",
"u+	c #EF3550",
"v+	c #E4AC17",
"w+	c #E0CD0A",
"x+	c #E7DF05",
"y+	c #F1EF03",
"z+	c #E1AB19",
"A+	c #DC8822",
"B+	c #DCA716",
"C+	c #EFF002",
"D+	c #FFFFFF",
"  j                             ",
"  q r     u v w x   z     C     ",
"  F G H I J K L M N O P Q R S   ",
"        X Y Z `  ...+.  #.      ",
"        -.Z.`. +.+++;.>.        ",
"      ).@+#+!.~.{.$+%+&+].      ",
"    (.*+=+-+_.  <.[.;+>+}.      ",
"  2.,+'+)+!+3.4.5.6.~+{+]+7.    ",
"  0.^+/+(+_+a.b.  d.:+<+[+e.    ",
"  h.}+|+1+2+i.j.k.l.3+4+5+m.    ",
"    p.6+7+q.r.s.8+9+0+a+b+t.    ",
"    w.c+d+e+f+g+h+i+j+k+l+x.    ",
"      C.m+n+o+p+q+r+s+t+D.E.    ",
"      I.J.u+v+w+x+y+z+K.        ",
"          P.Q.A+B+C+R.          ",
"            U.V.W.X.            "};
